<svg xmlns="http://www.w3.org/2000/svg" width="24" height="24" viewBox="0 0 24 24">
  <!-- Dark background for the icon -->
  <rect x="0" y="0" width="24" height="24" fill="#2b2b2b" />
  <!-- A solid gear shape for the icon -->
  <path d="M12 2c-1.104 0-2 .896-2 2s.896 2 2 2 2-.896 2-2-.896-2-2-2zm-6 4c-1.104 0-2 .896-2 2s.896 2 2 2 2-.896 2-2-.896-2-2-2zm12 0c-1.104 0-2 .896-2 2s.896 2 2 2 2-.896 2-2-.896-2-2-2zm-6 12c-1.104 0-2 .896-2 2s.896 2 2 2 2-.896 2-2-.896-2-2-2zm6-4c-1.104 0-2 .896-2 2s.896 2 2 2 2-.896 2-2-.896-2-2-2zm-12-4c-1.104 0-2 .896-2 2s.896 2 2 2 2-.896 2-2-.896-2-2-2zM12 9a3 3 0 1 0 0 6 3 3 0 0 0 0-6z" fill="#00aaff" stroke="#66caff" stroke-width="1.5" />
</svg>
