<svg xmlns="http://www.w3.org/2000/svg" width="24" height="24" viewBox="0 0 24 24">
  <!-- Dark background -->
  <rect x="0" y="0" width="24" height="24" fill="#2b2b2b" />

  <!-- Gear shape -->
  <path d="M12 8.5a3.5 3.5 0 1 1 0 7a3.5 3.5 0 0 1 0-7zm0-5c.4 0 .8.2 1 .5l.9 1.5a6.9 6.9 0 0 1 2.1.9l1.6-.6a1 1 0 0 1 1.2.6l.5 1.7c.1.4 0 .9-.3 1.2l-1.2 1a6.9 6.9 0 0 1 0 2.2l1.2 1c.3.3.4.8.3 1.2l-.5 1.7a1 1 0 0 1-1.2.6l-1.6-.6a6.9 6.9 0 0 1-2.1.9l-.9 1.5a1 1 0 0 1-1 .5h-2a1 1 0 0 1-1-.5l-.9-1.5a6.9 6.9 0 0 1-2.1-.9l-1.6.6a1 1 0 0 1-1.2-.6l-.5-1.7a1 1 0 0 1 .3-1.2l1.2-1a6.9 6.9 0 0 1 0-2.2l-1.2-1a1 1 0 0 1-.3-1.2l.5-1.7a1 1 0 0 1 1.2-.6l1.6.6a6.9 6.9 0 0 1 2.1-.9l.9-1.5a1 1 0 0 1 1-.5h2z" fill="#00aaff"/>


</svg>
